<svg width="32" height="32" viewBox="0 0 32 32" fill="none" xmlns="http://www.w3.org/2000/svg">
    <g clip-path="url(#clip0_11509_3104)">
    <path d="M17.3331 9.33332L14.6665 9.33332L14.6665 14.6666L9.33312 14.6666L9.33312 17.3333L14.6665 17.3333L14.6665 22.6667L17.3331 22.6667L17.3331 17.3333L22.6665 17.3333L22.6665 14.6666L17.3331 14.6666L17.3331 9.33332ZM15.9998 2.66665C8.63979 2.66665 2.66645 8.63998 2.66645 16C2.66645 23.36 8.63979 29.3333 15.9998 29.3333C23.3598 29.3333 29.3331 23.36 29.3331 16C29.3331 8.63998 23.3598 2.66665 15.9998 2.66665ZM15.9998 26.6667C10.1198 26.6666 5.33312 21.88 5.33312 16C5.33312 10.12 10.1198 5.33332 15.9998 5.33332C21.8798 5.33332 26.6665 10.12 26.6665 16C26.6665 21.88 21.8798 26.6666 15.9998 26.6667Z" fill="#747881"/>
    </g>
    <defs>
    <clipPath id="clip0_11509_3104">
    <rect width="32" height="32" fill="white"/>
    </clipPath>
    </defs>
    </svg>
     